# File created by Blade
# Date/Time:  Wed Apr 08 17:31:39 2015
# Frame Rate: 120.000 fps
#------------------------------------------------------
:FULLY-SPECIFIED
:DEGREES
1103
root 1.916071 36.364077 0.299669 -505.580119 -83.304627 532.865327
Spine -27.144953 -0.408416 -3.424228
Head 8.785622 14.475533 2.106564
LeftShoulder -5.819996 10.892775 30.658598
LeftArm 13.648812 -36.555417 -34.644264
LeftForeArm 19.360117 -0.000000 1.585604
LeftHand -9.667320 0.000000 -13.189354
LeftHandThumb1 -26.253704 0.000000 33.147579
RightShoulder -21.673952 -39.698892 -17.453063
RightArm 49.154798 46.599067 47.617140
RightForeArm -1.514004 0.000000 -1.748166
RightHand -0.962319 -0.000000 15.976781
RightHandThumb1 -24.326973 -0.000000 -32.862282
LeftUpLeg -28.055445 15.024559 -0.962911
LeftLeg 11.263816 -0.000000 -0.000000
LeftFoot -9.096477 10.033904 -14.924606
LeftToeBase 7.307016 -0.000000 -0.000000
RightUpLeg -28.577515 -9.003947 -5.269049
RightLeg 9.724567 -0.000000 -0.000000
RightFoot -9.802632 -7.331607 21.887642
RightToeBase 13.982633 -0.000000 -0.000000
1104
root 1.914417 36.363217 0.306258 -505.430659 -83.302485 532.716556
Spine -27.151395 -0.401507 -3.415228
Head 8.779933 14.519190 2.079266
LeftShoulder -5.798238 10.859859 30.665352
LeftArm 13.635793 -36.537897 -34.659073
LeftForeArm 19.291399 -0.000000 1.585681
LeftHand -9.688815 -0.000000 -13.149898
LeftHandThumb1 -26.253704 0.000000 33.147579
RightShoulder -21.650620 -39.690127 -17.467753
RightArm 49.176434 46.624084 47.646360
RightForeArm -1.489023 -0.000000 -1.727655
RightHand -0.988415 -0.000000 15.944698
RightHandThumb1 -24.326973 -0.000000 -32.862282
LeftUpLeg -28.064466 14.974856 -0.969701
LeftLeg 11.293119 -0.000000 -0.000000
LeftFoot -9.125357 10.058339 -14.941218
LeftToeBase 7.325420 -0.000000 -0.000000
RightUpLeg -28.593686 -8.997918 -5.302381
RightLeg 9.760691 -0.000000 -0.000000
RightFoot -9.828917 -7.347320 21.897954
RightToeBase 13.957886 -0.000000 -0.000000
1105
root 1.913742 36.362813 0.312722 -505.136873 -83.306542 532.440721
Spine -27.177909 -0.410156 -3.421039
Head 8.779620 14.567876 2.065949
LeftShoulder -5.793917 10.861989 30.676769
LeftArm 13.674727 -36.518757 -34.705618
LeftForeArm 19.317780 0.000000 1.590904
LeftHand -9.669241 -0.000000 -13.137981
LeftHandThumb1 -26.253704 0.000000 33.147579
RightShoulder -21.641860 -39.682809 -17.478770
RightArm 49.205227 46.621165 47.666018
RightForeArm -1.494366 -0.000000 -1.699835
RightHand -1.018384 -0.000000 15.923770
RightHandThumb1 -24.326973 -0.000000 -32.862282
LeftUpLeg -28.095348 14.913913 -0.993388
LeftLeg 11.318537 -0.000000 -0.000000
LeftFoot -9.131795 10.095725 -14.955303
LeftToeBase 7.307421 -0.000000 -0.000000
RightUpLeg -28.621962 -8.990245 -5.352661
RightLeg 9.789236 -0.000000 -0.000000
RightFoot -9.857386 -7.365897 21.918836
RightToeBase 13.980420 -0.000000 -0.000000
1106
root 1.913551 36.362264 0.318866 -504.948843 -83.306065 532.269513
Spine -27.201816 -0.408612 -3.410761
Head 8.762739 14.618313 2.023418
LeftShoulder -5.794497 10.896857 30.655628
LeftArm 13.732568 -36.536874 -34.726538
LeftForeArm 19.377863 -0.000000 1.606014
LeftHand -9.717032 -0.000000 -13.219854
LeftHandThumb1 -26.253704 0.000000 33.147579
RightShoulder -21.638307 -39.665228 -17.510765
RightArm 49.233878 46.584554 47.686638
RightForeArm -1.531419 0.000000 -1.667223
RightHand -1.019217 0.000000 15.899674
RightHandThumb1 -24.326973 -0.000000 -32.862282
LeftUpLeg -28.123878 14.876388 -1.014799
LeftLeg 11.338802 -0.000000 -0.000000
LeftFoot -9.144490 10.107886 -14.965231
LeftToeBase 7.319330 -0.000000 -0.000000
RightUpLeg -28.652366 -8.962197 -5.397418
RightLeg 9.822347 -0.000000 -0.000000
RightFoot -9.885674 -7.398042 21.946536
RightToeBase 13.983740 -0.000000 -0.000000
1107
root 1.912279 36.361417 0.324779 -504.820417 -83.301428 532.154482
Spine -27.223382 -0.405967 -3.392672
Head 8.743010 14.700429 1.980315
LeftShoulder -5.797097 10.879568 30.656501
LeftArm 13.745993 -36.504472 -34.739075
LeftForeArm 19.417152 0.000000 1.587091
LeftHand -9.557482 -0.000000 -13.303640
LeftHandThumb1 -26.253704 0.000000 33.147579
RightShoulder -21.626982 -39.645422 -17.546220
RightArm 49.256478 46.538324 47.685268
RightForeArm -1.547572 -0.000000 -1.662115
RightHand -0.990143 -0.000000 15.912743
RightHandThumb1 -24.326973 -0.000000 -32.862282
LeftUpLeg -28.141305 14.838880 -1.027078
LeftLeg 11.355955 -0.000000 -0.000000
LeftFoot -9.170141 10.143467 -14.984789
LeftToeBase 7.337001 -0.000000 -0.000000
RightUpLeg -28.682951 -8.944515 -5.433641
RightLeg 9.861314 -0.000000 -0.000000
RightFoot -9.903093 -7.407486 21.980516
RightToeBase 13.936461 -0.000000 -0.000000
1108
root 1.912080 36.361792 0.330062 -504.631224 -83.318741 532.002351
Spine -27.273644 -0.425288 -3.363017
Head 8.719349 14.784756 1.932741
LeftShoulder -5.813775 10.924420 30.627902
LeftArm 13.833952 -36.537091 -34.769517
LeftForeArm 19.486004 -0.000000 1.543069
LeftHand -9.550385 -0.000000 -13.309841
LeftHandThumb1 -26.253704 0.000000 33.147579
RightShoulder -21.600551 -39.619617 -17.602482
RightArm 49.238201 46.467694 47.655867
RightForeArm -1.486729 0.000000 -1.653195
RightHand -0.976454 -0.000000 15.870698
RightHandThumb1 -24.326973 -0.000000 -32.862282
LeftUpLeg -28.191122 14.782187 -1.036031
LeftLeg 11.380654 -0.000000 -0.000000
LeftFoot -9.185012 10.160553 -15.004073
LeftToeBase 7.333729 -0.000000 -0.000000
RightUpLeg -28.726513 -8.941589 -5.457569
RightLeg 9.884161 -0.000000 -0.000000
RightFoot -9.916022 -7.427654 22.017467
RightToeBase 13.905411 -0.000000 -0.000000
1109
root 1.911325 36.362048 0.335472 -504.485382 -83.319714 531.874407
Spine -27.303131 -0.431193 -3.342520
Head 8.697536 14.872522 1.885345
LeftShoulder -5.838084 10.972297 30.590744
LeftArm 13.929319 -36.546462 -34.780670
LeftForeArm 19.476918 0.000000 1.479646
LeftHand -9.539541 -0.000000 -13.261425
LeftHandThumb1 -26.253704 0.000000 33.147579
RightShoulder -21.589484 -39.627495 -17.623069
RightArm 49.298406 46.451685 47.673769
RightForeArm -1.475773 -0.000000 -1.675959
RightHand -0.958586 -0.000000 15.857561
RightHandThumb1 -24.326973 -0.000000 -32.862282
LeftUpLeg -28.214376 14.754234 -1.053125
LeftLeg 11.390369 -0.000000 -0.000000
LeftFoot -9.182326 10.169275 -15.017122
LeftToeBase 7.317972 -0.000000 -0.000000
RightUpLeg -28.749521 -8.902483 -5.499483
RightLeg 9.902836 -0.000000 -0.000000
RightFoot -9.939725 -7.479202 22.037770
RightToeBase 13.893021 -0.000000 -0.000000
1110
root 1.909844 36.362187 0.340326 -504.332256 -83.323438 531.746354
Spine -27.345800 -0.443901 -3.313699
Head 8.676288 14.976541 1.829463
LeftShoulder -5.977985 11.215415 30.438195
LeftArm 14.363647 -36.655365 -34.824844
LeftForeArm 19.419792 -0.000000 1.271708
LeftHand -9.502205 -0.000000 -13.295703
LeftHandThumb1 -26.253704 0.000000 33.147579
RightShoulder -21.571390 -39.637426 -17.657794
RightArm 49.383081 46.455778 47.737426
RightForeArm -1.508602 -0.000000 -1.679098
RightHand -0.966253 0.000000 15.876596
RightHandThumb1 -24.326973 -0.000000 -32.862282
LeftUpLeg -28.245266 14.742952 -1.079605
LeftLeg 11.400440 -0.000000 -0.000000
LeftFoot -9.184755 10.168288 -15.014029
LeftToeBase 7.314324 -0.000000 -0.000000
RightUpLeg -28.773783 -8.891102 -5.527009
RightLeg 9.909628 -0.000000 -0.000000
RightFoot -9.953355 -7.502764 22.076255
RightToeBase 13.885620 -0.000000 -0.000000
